# xmcd
# 
# Track frame offsets:
#   150
#   19657
#   35899
#   53038
#   68416
#   86207
#   104025
#   124130
#   141231
#   159761
#   176114
#   193522
#   211264
#   230165
#   246746
# 
# Disc length: 3498 seconds
# 
# Revision: 0
# Processed by: cddbd v1.5.1PL2 Copyright (c) Steve Scherf et al.
# Submitted via: Synapstar 1.0 
# 
DISCID=de0da80f
DTITLE=Various Artist - Country Hits
DYEAR=1900
DGENRE=Country
TTITLE0=Shania Twain - I'm Gonna Getcha Good
TTITLE1=Mark Wills - Nineteen somethin'
TTITLE2=Gary Allen - Man To Man
TTITLE3=Darryl Worley - Family Tree
TTITLE4=Lee Ann Womack - Forever Everyday
TTITLE5=Joe Nichols - Brokenheartsville
TTITLE6=Brad Paisley - I Wish You'd Stay
TTITLE7=Aaron Tippin - You Can't Hide Beautiful
TTITLE8=Blake Shelton - The Baby
TTITLE9=Alison Krauss/Union Station - New Favorite
TTITLE10=Sixwire - Way too Deep
TTITLE11=Jennifer Hanson - Beautiful Goodbye
TTITLE12=Martina Mcbride - Concrete Angel
TTITLE13=Pinmonkey - I Drove All Night
TTITLE14=Deana Carter - There's No Limit
EXTD=MediaType: Karaoke CD+G Producer: Music Maestro
EXTT0=
EXTT1=
EXTT2=
EXTT3=
EXTT4=
EXTT5=
EXTT6=
EXTT7=
EXTT8=
EXTT9=
EXTT10=
EXTT11=
EXTT12=
EXTT13=
EXTT14=
PLAYORDER=
